STARTFONT 2.1
FONT -FontForge-Shadows Into Light-Book-R-Normal--18-180-72-72-P-75-ISO10646-1
SIZE 18 72 72
FONTBOUNDINGBOX 25 29 -3 -8
COMMENT "Generated by fontforge, http://fontforge.sourceforge.net"
COMMENT "Copyright (c) 2010, Kimberly Geswein (kimberlygeswein.com)"
STARTPROPERTIES 39
FOUNDRY "FontForge"
FAMILY_NAME "Shadows Into Light"
WEIGHT_NAME "Book"
SLANT "R"
SETWIDTH_NAME "Normal"
ADD_STYLE_NAME ""
PIXEL_SIZE 18
POINT_SIZE 180
RESOLUTION_X 72
RESOLUTION_Y 72
SPACING "P"
AVERAGE_WIDTH 75
CHARSET_REGISTRY "ISO10646"
CHARSET_ENCODING "1"
FONTNAME_REGISTRY ""
CHARSET_COLLECTIONS "ISO8859-2 ISO8859-9 ISO8859-4 ISO10646-1"
FONT_NAME "ShadowsIntoLight"
FACE_NAME "Shadows Into Light"
COPYRIGHT "Copyright (c) 2010, Kimberly Geswein (kimberlygeswein.com)"
FONT_VERSION "001.000"
FONT_ASCENT 14
FONT_DESCENT 4
UNDERLINE_POSITION 0
UNDERLINE_THICKNESS 0
X_HEIGHT 10
CAP_HEIGHT 12
RAW_ASCENT 799
RAW_DESCENT 200
NORM_SPACE 8
RELATIVE_WEIGHT 40
RELATIVE_SETWIDTH 50
SUPERSCRIPT_X 0
SUPERSCRIPT_Y 8
SUPERSCRIPT_SIZE 11
SUBSCRIPT_X 0
SUBSCRIPT_Y 2
SUBSCRIPT_SIZE 11
AVG_LOWERCASE_WIDTH 68
AVG_UPPERCASE_WIDTH 88
ENDPROPERTIES
CHARS 352
STARTCHAR space
ENCODING 32
SWIDTH 450 0
DWIDTH 8 0
BBX 1 1 0 0
BITMAP
00
ENDCHAR
STARTCHAR exclam
ENCODING 33
SWIDTH 137 0
DWIDTH 2 0
BBX 2 15 0 0
BITMAP
80
80
80
80
80
80
80
80
80
00
00
00
00
00
40
ENDCHAR
STARTCHAR quotedbl
ENCODING 34
SWIDTH 212 0
DWIDTH 4 0
BBX 3 5 0 9
BITMAP
A0
60
60
60
40
ENDCHAR
STARTCHAR numbersign
ENCODING 35
SWIDTH 450 0
DWIDTH 8 0
BBX 7 10 1 2
BITMAP
10
10
48
4C
F8
4A
4C
78
C8
48
ENDCHAR
STARTCHAR dollar
ENCODING 36
SWIDTH 445 0
DWIDTH 8 0
BBX 7 16 0 -2
BITMAP
10
10
14
18
30
50
90
FC
0A
0A
0C
18
28
08
08
04
ENDCHAR
STARTCHAR percent
ENCODING 37
SWIDTH 450 0
DWIDTH 8 0
BBX 8 14 0 0
BITMAP
04
04
E8
A8
A8
48
10
12
13
13
12
20
20
20
ENDCHAR
STARTCHAR ampersand
ENCODING 38
SWIDTH 356 0
DWIDTH 6 0
BBX 6 8 0 2
BITMAP
10
10
10
7C
90
B0
D0
10
ENDCHAR
STARTCHAR quotesingle
ENCODING 39
SWIDTH 155 0
DWIDTH 3 0
BBX 1 5 1 6
BITMAP
80
80
80
80
80
ENDCHAR
STARTCHAR parenleft
ENCODING 40
SWIDTH 291 0
DWIDTH 5 0
BBX 5 15 0 0
BITMAP
08
10
10
20
40
40
40
80
80
80
80
80
40
40
38
ENDCHAR
STARTCHAR parenright
ENCODING 41
SWIDTH 241 0
DWIDTH 4 0
BBX 4 14 0 0
BITMAP
80
40
20
20
10
10
10
10
10
10
10
20
20
40
ENDCHAR
STARTCHAR asterisk
ENCODING 42
SWIDTH 481 0
DWIDTH 9 0
BBX 8 9 0 1
BITMAP
10
16
94
7F
38
D6
29
48
08
ENDCHAR
STARTCHAR plus
ENCODING 43
SWIDTH 466 0
DWIDTH 8 0
BBX 8 8 0 2
BITMAP
10
10
10
17
38
D0
10
10
ENDCHAR
STARTCHAR comma
ENCODING 44
SWIDTH 112 0
DWIDTH 2 0
BBX 1 4 1 -2
BITMAP
80
80
80
80
ENDCHAR
STARTCHAR hyphen
ENCODING 45
SWIDTH 399 0
DWIDTH 7 0
BBX 7 3 0 3
BITMAP
06
38
C0
ENDCHAR
STARTCHAR period
ENCODING 46
SWIDTH 128 0
DWIDTH 2 0
BBX 2 1 0 0
BITMAP
C0
ENDCHAR
STARTCHAR slash
ENCODING 47
SWIDTH 306 0
DWIDTH 6 0
BBX 5 15 0 -2
BITMAP
08
08
10
10
10
10
20
20
20
40
40
40
80
80
80
ENDCHAR
STARTCHAR zero
ENCODING 48
SWIDTH 308 0
DWIDTH 6 0
BBX 4 10 1 0
BITMAP
60
90
90
90
90
90
90
90
A0
60
ENDCHAR
STARTCHAR one
ENCODING 49
SWIDTH 112 0
DWIDTH 2 0
BBX 1 11 1 0
BITMAP
80
80
80
80
80
80
80
80
80
80
80
ENDCHAR
STARTCHAR two
ENCODING 50
SWIDTH 512 0
DWIDTH 9 0
BBX 9 10 0 0
BITMAP
3800
4800
8400
0800
0800
0800
1000
1180
2E00
3000
ENDCHAR
STARTCHAR three
ENCODING 51
SWIDTH 461 0
DWIDTH 8 0
BBX 8 12 0 0
BITMAP
3C
C4
08
10
3E
71
01
01
02
04
08
10
ENDCHAR
STARTCHAR four
ENCODING 52
SWIDTH 503 0
DWIDTH 9 0
BBX 9 14 0 0
BITMAP
0400
0400
0C00
0C00
1400
1400
2400
4F80
F400
0400
0400
0400
0400
0400
ENDCHAR
STARTCHAR five
ENCODING 53
SWIDTH 478 0
DWIDTH 9 0
BBX 8 12 0 0
BITMAP
5F
E0
40
40
4C
74
42
44
04
08
18
10
ENDCHAR
STARTCHAR six
ENCODING 54
SWIDTH 375 0
DWIDTH 7 0
BBX 6 15 0 0
BITMAP
20
20
20
40
40
40
40
40
4C
94
A4
A4
48
48
30
ENDCHAR
STARTCHAR seven
ENCODING 55
SWIDTH 458 0
DWIDTH 8 0
BBX 8 13 0 0
BITMAP
3F
C2
02
04
04
04
04
04
08
08
08
0C
04
ENDCHAR
STARTCHAR eight
ENCODING 56
SWIDTH 333 0
DWIDTH 6 0
BBX 5 13 0 0
BITMAP
10
38
58
88
88
88
50
30
30
28
48
48
38
ENDCHAR
STARTCHAR nine
ENCODING 57
SWIDTH 475 0
DWIDTH 9 0
BBX 8 12 0 0
BITMAP
1E
22
46
49
99
B1
41
01
01
01
01
01
ENDCHAR
STARTCHAR colon
ENCODING 58
SWIDTH 120 0
DWIDTH 2 0
BBX 2 6 0 2
BITMAP
80
00
00
00
00
40
ENDCHAR
STARTCHAR semicolon
ENCODING 59
SWIDTH 121 0
DWIDTH 2 0
BBX 1 7 1 -2
BITMAP
80
00
00
80
80
80
80
ENDCHAR
STARTCHAR less
ENCODING 60
SWIDTH 409 0
DWIDTH 7 0
BBX 6 9 1 2
BITMAP
04
08
30
60
80
C0
30
1C
04
ENDCHAR
STARTCHAR equal
ENCODING 61
SWIDTH 433 0
DWIDTH 8 0
BBX 8 4 0 2
BITMAP
7E
00
0F
F0
ENDCHAR
STARTCHAR greater
ENCODING 62
SWIDTH 450 0
DWIDTH 8 0
BBX 6 10 1 2
BITMAP
80
60
30
0C
04
08
10
20
C0
80
ENDCHAR
STARTCHAR question
ENCODING 63
SWIDTH 445 0
DWIDTH 8 0
BBX 8 16 0 0
BITMAP
7F
C1
02
02
04
08
10
20
30
1C
00
00
00
00
00
10
ENDCHAR
STARTCHAR at
ENCODING 64
SWIDTH 945 0
DWIDTH 17 0
BBX 17 16 0 0
BITMAP
01F800
020400
040400
080200
11C200
224200
24C200
494200
494400
4A3800
CC0000
C00180
400100
400600
303800
1FC000
ENDCHAR
STARTCHAR A
ENCODING 65
SWIDTH 390 0
DWIDTH 7 0
BBX 9 14 0 0
BITMAP
2000
2000
3000
5000
5000
4800
4800
4980
4E00
7C00
4400
4400
4200
8200
ENDCHAR
STARTCHAR B
ENCODING 66
SWIDTH 537 0
DWIDTH 10 0
BBX 9 13 0 0
BITMAP
1E00
A200
4400
4400
4F80
5880
7080
6100
2200
2600
2C00
2800
2000
ENDCHAR
STARTCHAR C
ENCODING 67
SWIDTH 487 0
DWIDTH 9 0
BBX 8 13 0 0
BITMAP
1C
12
20
20
40
40
40
40
81
81
82
44
78
ENDCHAR
STARTCHAR D
ENCODING 68
SWIDTH 554 0
DWIDTH 10 0
BBX 10 13 0 0
BITMAP
2000
7F00
A080
2040
2040
2080
2080
2100
2200
2600
2C00
3800
1000
ENDCHAR
STARTCHAR E
ENCODING 69
SWIDTH 474 0
DWIDTH 9 0
BBX 7 13 1 0
BITMAP
8C
F0
C0
80
84
88
B0
C0
82
84
88
F0
C0
ENDCHAR
STARTCHAR F
ENCODING 70
SWIDTH 428 0
DWIDTH 8 0
BBX 7 13 1 0
BITMAP
02
9C
E0
80
80
80
84
98
E0
80
80
80
80
ENDCHAR
STARTCHAR G
ENCODING 71
SWIDTH 591 0
DWIDTH 11 0
BBX 10 14 0 -2
BITMAP
0300
0C00
1000
1000
2000
43C0
4480
4180
8180
8280
4C80
3080
0080
0080
ENDCHAR
STARTCHAR H
ENCODING 72
SWIDTH 424 0
DWIDTH 8 0
BBX 6 12 1 0
BITMAP
88
88
88
88
88
8C
B4
C4
84
84
84
84
ENDCHAR
STARTCHAR I
ENCODING 73
SWIDTH 153 0
DWIDTH 3 0
BBX 1 13 1 0
BITMAP
80
80
80
80
80
80
80
80
80
80
80
80
80
ENDCHAR
STARTCHAR J
ENCODING 74
SWIDTH 371 0
DWIDTH 7 0
BBX 6 14 0 -1
BITMAP
08
08
08
08
04
04
04
04
04
04
84
84
44
38
ENDCHAR
STARTCHAR K
ENCODING 75
SWIDTH 524 0
DWIDTH 9 0
BBX 9 12 0 0
BITMAP
C000
4200
4400
4800
4800
5000
6000
6000
6000
3F80
2000
2000
ENDCHAR
STARTCHAR L
ENCODING 76
SWIDTH 537 0
DWIDTH 10 0
BBX 9 11 1 0
BITMAP
8000
8000
8000
8000
8000
8000
8000
8180
8E00
B800
E000
ENDCHAR
STARTCHAR M
ENCODING 77
SWIDTH 682 0
DWIDTH 12 0
BBX 11 14 1 0
BITMAP
8080
C080
C080
A140
A140
9140
9240
8A40
8A40
8440
8040
8040
C040
C020
ENDCHAR
STARTCHAR N
ENCODING 78
SWIDTH 541 0
DWIDTH 10 0
BBX 8 14 1 0
BITMAP
02
02
82
82
C2
E1
A1
91
89
85
85
83
41
40
ENDCHAR
STARTCHAR O
ENCODING 79
SWIDTH 382 0
DWIDTH 7 0
BBX 7 12 0 0
BITMAP
18
24
44
42
42
42
84
84
84
8C
48
70
ENDCHAR
STARTCHAR P
ENCODING 80
SWIDTH 508 0
DWIDTH 9 0
BBX 9 14 0 0
BITMAP
7F00
6080
C080
4100
4200
4C00
7000
4000
4000
4000
4000
2000
2000
2000
ENDCHAR
STARTCHAR Q
ENCODING 81
SWIDTH 512 0
DWIDTH 9 0
BBX 8 14 1 0
BITMAP
28
74
42
82
82
82
82
8A
8A
86
86
86
46
79
ENDCHAR
STARTCHAR R
ENCODING 82
SWIDTH 503 0
DWIDTH 9 0
BBX 8 14 1 0
BITMAP
9C
E3
82
84
98
A0
C0
80
E0
98
86
81
80
80
ENDCHAR
STARTCHAR S
ENCODING 83
SWIDTH 541 0
DWIDTH 10 0
BBX 9 13 0 0
BITMAP
0E00
1000
2000
4000
8000
8000
8000
7800
0780
0080
0100
0E00
3000
ENDCHAR
STARTCHAR T
ENCODING 84
SWIDTH 595 0
DWIDTH 11 0
BBX 13 13 0 0
BITMAP
0238
3FC0
C200
0200
0200
0200
0200
0200
0200
0200
0100
0100
0100
ENDCHAR
STARTCHAR U
ENCODING 85
SWIDTH 450 0
DWIDTH 8 0
BBX 7 13 1 -2
BITMAP
86
86
86
84
84
84
8C
8C
8A
92
62
02
02
ENDCHAR
STARTCHAR V
ENCODING 86
SWIDTH 524 0
DWIDTH 9 0
BBX 9 13 0 0
BITMAP
0080
0080
8080
4100
4100
6100
2100
3200
1200
1200
0A00
0E00
0400
ENDCHAR
STARTCHAR W
ENCODING 87
SWIDTH 878 0
DWIDTH 16 0
BBX 15 13 0 0
BITMAP
0002
0002
C082
4184
41C4
2144
2244
2228
3228
1428
1418
1410
0800
ENDCHAR
STARTCHAR X
ENCODING 88
SWIDTH 461 0
DWIDTH 8 0
BBX 8 13 0 0
BITMAP
01
41
42
24
24
18
18
18
18
24
44
C2
02
ENDCHAR
STARTCHAR Y
ENCODING 89
SWIDTH 483 0
DWIDTH 9 0
BBX 8 14 0 0
BITMAP
01
01
81
81
42
22
12
1C
0C
0C
08
08
08
10
ENDCHAR
STARTCHAR Z
ENCODING 90
SWIDTH 670 0
DWIDTH 12 0
BBX 12 12 0 0
BITMAP
7FC0
0080
0100
0300
0600
0400
0800
1000
3000
2000
4010
FFE0
ENDCHAR
STARTCHAR bracketleft
ENCODING 91
SWIDTH 470 0
DWIDTH 8 0
BBX 8 22 0 -2
BITMAP
FE
C0
40
40
40
40
40
40
40
40
40
40
40
40
20
20
20
20
20
20
3F
30
ENDCHAR
STARTCHAR backslash
ENCODING 92
SWIDTH 554 0
DWIDTH 10 0
BBX 10 18 0 0
BITMAP
8000
4000
4000
2000
2000
1000
1000
0800
0800
0400
0400
0200
0200
0100
0100
0080
0080
00C0
ENDCHAR
STARTCHAR bracketright
ENCODING 93
SWIDTH 512 0
DWIDTH 9 0
BBX 9 23 0 -2
BITMAP
FF00
0100
0100
0100
0100
0100
0100
0100
0100
0100
0100
0100
0100
0100
0100
0100
0100
0100
0100
0180
0180
0380
0E00
ENDCHAR
STARTCHAR asciicircum
ENCODING 94
SWIDTH 390 0
DWIDTH 7 0
BBX 7 5 0 12
BITMAP
10
28
28
44
82
ENDCHAR
STARTCHAR underscore
ENCODING 95
SWIDTH 612 0
DWIDTH 11 0
BBX 11 3 0 0
BITMAP
01E0
1F00
E000
ENDCHAR
STARTCHAR grave
ENCODING 96
SWIDTH 155 0
DWIDTH 3 0
BBX 2 2 0 11
BITMAP
80
40
ENDCHAR
STARTCHAR a
ENCODING 97
SWIDTH 366 0
DWIDTH 7 0
BBX 6 10 0 0
BITMAP
08
1C
2C
6C
4C
54
94
A4
E4
44
ENDCHAR
STARTCHAR b
ENCODING 98
SWIDTH 442 0
DWIDTH 8 0
BBX 6 15 1 0
BITMAP
80
80
80
80
80
80
BC
E4
C4
84
84
88
98
E0
C0
ENDCHAR
STARTCHAR c
ENCODING 99
SWIDTH 390 0
DWIDTH 7 0
BBX 6 11 0 0
BITMAP
10
30
48
48
40
40
80
84
44
44
38
ENDCHAR
STARTCHAR d
ENCODING 100
SWIDTH 316 0
DWIDTH 6 0
BBX 5 18 0 -2
BITMAP
08
08
08
08
08
08
08
38
48
48
88
88
88
98
A8
48
08
08
ENDCHAR
STARTCHAR e
ENCODING 101
SWIDTH 461 0
DWIDTH 8 0
BBX 8 10 0 0
BITMAP
08
34
24
48
70
C1
43
42
4C
30
ENDCHAR
STARTCHAR f
ENCODING 102
SWIDTH 345 0
DWIDTH 6 0
BBX 6 16 0 0
BITMAP
10
28
28
20
20
20
20
2C
30
E0
20
20
20
20
20
20
ENDCHAR
STARTCHAR g
ENCODING 103
SWIDTH 437 0
DWIDTH 8 0
BBX 7 18 0 -8
BITMAP
0C
16
26
4A
4A
5A
92
A2
62
02
02
02
02
02
04
04
18
70
ENDCHAR
STARTCHAR h
ENCODING 104
SWIDTH 466 0
DWIDTH 8 0
BBX 7 13 1 0
BITMAP
80
80
80
80
8C
9A
B2
A2
C2
C2
82
82
82
ENDCHAR
STARTCHAR i
ENCODING 105
SWIDTH 132 0
DWIDTH 2 0
BBX 2 13 0 0
BITMAP
80
00
00
40
40
40
40
40
40
40
40
40
40
ENDCHAR
STARTCHAR j
ENCODING 106
SWIDTH 112 0
DWIDTH 2 0
BBX 5 20 -3 -6
BITMAP
10
00
00
00
00
10
10
10
10
08
08
08
08
08
08
08
08
88
90
70
ENDCHAR
STARTCHAR k
ENCODING 107
SWIDTH 428 0
DWIDTH 8 0
BBX 7 15 0 -1
BITMAP
40
40
40
42
42
46
4C
48
58
70
40
60
5C
82
80
ENDCHAR
STARTCHAR l
ENCODING 108
SWIDTH 137 0
DWIDTH 2 0
BBX 2 15 0 0
BITMAP
80
40
40
40
40
40
40
40
40
40
40
40
40
40
40
ENDCHAR
STARTCHAR m
ENCODING 109
SWIDTH 579 0
DWIDTH 10 0
BBX 9 11 1 0
BITMAP
8000
8000
A300
B700
F500
D500
C900
C900
8900
8080
8000
ENDCHAR
STARTCHAR n
ENCODING 110
SWIDTH 483 0
DWIDTH 9 0
BBX 7 11 1 0
BITMAP
08
9C
92
A2
A2
A2
C2
C2
C2
C2
82
ENDCHAR
STARTCHAR o
ENCODING 111
SWIDTH 266 0
DWIDTH 5 0
BBX 5 10 0 0
BITMAP
60
50
50
88
88
90
90
90
B0
60
ENDCHAR
STARTCHAR p
ENCODING 112
SWIDTH 482 0
DWIDTH 9 0
BBX 8 14 0 -5
BITMAP
CF
B1
41
42
44
48
70
60
40
40
40
40
40
80
ENDCHAR
STARTCHAR q
ENCODING 113
SWIDTH 408 0
DWIDTH 7 0
BBX 8 13 0 -5
BITMAP
1C
24
44
44
8A
8A
72
02
02
02
02
02
01
ENDCHAR
STARTCHAR r
ENCODING 114
SWIDTH 396 0
DWIDTH 7 0
BBX 7 9 0 0
BITMAP
9E
50
70
60
60
60
60
20
20
ENDCHAR
STARTCHAR s
ENCODING 115
SWIDTH 366 0
DWIDTH 7 0
BBX 6 9 0 0
BITMAP
18
60
40
80
9C
64
04
08
30
ENDCHAR
STARTCHAR t
ENCODING 116
SWIDTH 268 0
DWIDTH 5 0
BBX 6 14 -1 0
BITMAP
20
20
20
20
2C
70
E0
20
20
20
20
20
20
20
ENDCHAR
STARTCHAR u
ENCODING 117
SWIDTH 387 0
DWIDTH 7 0
BBX 5 9 1 0
BITMAP
88
88
88
88
88
98
98
B8
E8
ENDCHAR
STARTCHAR v
ENCODING 118
SWIDTH 354 0
DWIDTH 6 0
BBX 6 10 0 0
BITMAP
04
04
84
44
44
24
24
14
1C
0C
ENDCHAR
STARTCHAR w
ENCODING 119
SWIDTH 566 0
DWIDTH 10 0
BBX 10 9 0 0
BITMAP
8880
4C80
4C80
2A80
2980
3980
1880
10C0
1000
ENDCHAR
STARTCHAR x
ENCODING 120
SWIDTH 454 0
DWIDTH 8 0
BBX 8 12 0 -1
BITMAP
08
08
08
C8
68
38
18
1C
12
11
20
20
ENDCHAR
STARTCHAR y
ENCODING 121
SWIDTH 363 0
DWIDTH 7 0
BBX 6 16 0 -7
BITMAP
04
C4
44
24
24
14
1C
0C
04
04
04
04
04
04
08
08
ENDCHAR
STARTCHAR z
ENCODING 122
SWIDTH 618 0
DWIDTH 11 0
BBX 12 9 0 0
BITMAP
0600
3A00
C600
0400
0800
0800
1000
13F0
1C00
ENDCHAR
STARTCHAR braceleft
ENCODING 123
SWIDTH 348 0
DWIDTH 6 0
BBX 6 17 0 -2
BITMAP
3C
60
40
40
20
30
E0
40
20
E0
80
80
80
80
40
30
08
ENDCHAR
STARTCHAR bar
ENCODING 124
SWIDTH 137 0
DWIDTH 2 0
BBX 2 15 0 0
BITMAP
80
40
40
40
40
40
40
40
40
40
40
40
40
40
40
ENDCHAR
STARTCHAR braceright
ENCODING 125
SWIDTH 348 0
DWIDTH 6 0
BBX 6 17 0 -2
BITMAP
E0
90
08
10
10
10
38
08
10
18
08
04
04
04
08
18
70
ENDCHAR
STARTCHAR asciitilde
ENCODING 126
SWIDTH 458 0
DWIDTH 8 0
BBX 6 3 1 10
BITMAP
64
B4
98
ENDCHAR
STARTCHAR nonbreakingspace
ENCODING 160
SWIDTH 450 0
DWIDTH 8 0
BBX 1 1 0 0
BITMAP
00
ENDCHAR
STARTCHAR exclamdown
ENCODING 161
SWIDTH 137 0
DWIDTH 2 0
BBX 2 12 0 -3
BITMAP
40
00
00
00
00
C0
80
80
80
80
80
80
ENDCHAR
STARTCHAR cent
ENCODING 162
SWIDTH 394 0
DWIDTH 7 0
BBX 6 14 0 -1
BITMAP
10
10
10
38
5C
50
50
50
90
94
54
54
38
10
ENDCHAR
STARTCHAR sterling
ENCODING 163
SWIDTH 539 0
DWIDTH 10 0
BBX 9 12 0 0
BITMAP
0700
0880
1000
1000
3C00
E000
2000
2000
2000
2000
2F80
3080
ENDCHAR
STARTCHAR currency
ENCODING 164
SWIDTH 500 0
DWIDTH 9 0
BBX 7 11 1 1
BITMAP
02
44
7C
28
44
44
44
68
F8
84
80
ENDCHAR
STARTCHAR yen
ENCODING 165
SWIDTH 478 0
DWIDTH 9 0
BBX 7 15 1 0
BITMAP
04
46
4C
68
28
30
10
10
3E
F0
1C
F0
10
10
10
ENDCHAR
STARTCHAR brokenbar
ENCODING 166
SWIDTH 137 0
DWIDTH 2 0
BBX 2 15 0 0
BITMAP
80
40
40
40
40
40
00
40
40
40
40
40
40
40
40
ENDCHAR
STARTCHAR section
ENCODING 167
SWIDTH 366 0
DWIDTH 7 0
BBX 6 13 0 0
BITMAP
38
40
C0
80
FC
64
4C
88
BC
64
04
08
30
ENDCHAR
STARTCHAR dieresis
ENCODING 168
SWIDTH 306 0
DWIDTH 6 0
BBX 4 1 1 12
BITMAP
B0
ENDCHAR
STARTCHAR copyright
ENCODING 169
SWIDTH 485 0
DWIDTH 9 0
BBX 8 12 0 0
BITMAP
1E
33
21
5D
55
61
A3
A3
9F
82
4C
78
ENDCHAR
STARTCHAR ordfeminine
ENCODING 170
SWIDTH 227 0
DWIDTH 4 0
BBX 4 5 0 2
BITMAP
20
60
A0
D0
90
ENDCHAR
STARTCHAR guillemotleft
ENCODING 171
SWIDTH 652 0
DWIDTH 12 0
BBX 10 10 1 2
BITMAP
0040
0480
0900
3600
6C00
9000
CC00
3600
1D80
0480
ENDCHAR
STARTCHAR logicalnot
ENCODING 172
SWIDTH 539 0
DWIDTH 10 0
BBX 8 5 1 2
BITMAP
FF
01
01
01
01
ENDCHAR
STARTCHAR uni00AD
ENCODING 173
SWIDTH 399 0
DWIDTH 7 0
BBX 7 3 0 3
BITMAP
06
38
C0
ENDCHAR
STARTCHAR registered
ENCODING 174
SWIDTH 382 0
DWIDTH 7 0
BBX 9 12 0 0
BITMAP
1C00
3200
2100
6D00
7300
6D80
9100
AD00
A300
8200
4400
7800
ENDCHAR
STARTCHAR macron
ENCODING 175
SWIDTH 399 0
DWIDTH 7 0
BBX 7 1 0 12
BITMAP
FE
ENDCHAR
STARTCHAR degree
ENCODING 176
SWIDTH 201 0
DWIDTH 4 0
BBX 3 3 0 7
BITMAP
60
A0
60
ENDCHAR
STARTCHAR plusminus
ENCODING 177
SWIDTH 466 0
DWIDTH 8 0
BBX 7 9 0 1
BITMAP
10
10
10
16
38
D0
10
1E
60
ENDCHAR
STARTCHAR twosuperior
ENCODING 178
SWIDTH 318 0
DWIDTH 6 0
BBX 5 6 0 3
BITMAP
60
90
20
20
28
70
ENDCHAR
STARTCHAR threesuperior
ENCODING 179
SWIDTH 280 0
DWIDTH 5 0
BBX 5 7 0 3
BITMAP
60
A0
30
48
08
10
20
ENDCHAR
STARTCHAR acute
ENCODING 180
SWIDTH 155 0
DWIDTH 3 0
BBX 2 2 0 11
BITMAP
40
C0
ENDCHAR
STARTCHAR mu
ENCODING 181
SWIDTH 387 0
DWIDTH 7 0
BBX 6 12 0 -2
BITMAP
44
44
44
44
44
4C
4C
5C
74
80
80
80
ENDCHAR
STARTCHAR paragraph
ENCODING 182
SWIDTH 447 0
DWIDTH 8 0
BBX 7 11 0 0
BITMAP
7E
7A
FA
6A
0E
06
06
06
06
06
06
ENDCHAR
STARTCHAR periodcentered
ENCODING 183
SWIDTH 128 0
DWIDTH 2 0
BBX 2 1 0 4
BITMAP
C0
ENDCHAR
STARTCHAR cedilla
ENCODING 184
SWIDTH 322 0
DWIDTH 6 0
BBX 4 6 1 -5
BITMAP
80
80
C0
70
10
F0
ENDCHAR
STARTCHAR onesuperior
ENCODING 185
SWIDTH 112 0
DWIDTH 2 0
BBX 1 6 0 3
BITMAP
80
80
80
80
80
80
ENDCHAR
STARTCHAR ordmasculine
ENCODING 186
SWIDTH 212 0
DWIDTH 4 0
BBX 4 5 0 2
BITMAP
60
90
90
A0
E0
ENDCHAR
STARTCHAR guillemotright
ENCODING 187
SWIDTH 625 0
DWIDTH 11 0
BBX 9 10 1 2
BITMAP
9800
6C00
3300
0C80
0480
0900
1200
2400
C800
9000
ENDCHAR
STARTCHAR onequarter
ENCODING 188
SWIDTH 678 0
DWIDTH 12 0
BBX 10 15 1 -2
BITMAP
0800
1000
1000
9000
A100
A300
A500
C500
CBC0
D500
4100
8100
8100
8000
8000
ENDCHAR
STARTCHAR onehalf
ENCODING 189
SWIDTH 693 0
DWIDTH 12 0
BBX 10 15 1 -2
BITMAP
0800
0800
0800
8800
9000
9600
9A00
B200
A200
A200
4200
45C0
4600
4000
4000
ENDCHAR
STARTCHAR threequarters
ENCODING 190
SWIDTH 868 0
DWIDTH 16 0
BBX 12 15 1 -2
BITMAP
0080
7080
90C0
2140
79C0
C540
0540
0A70
17C0
2240
0440
0440
0440
0800
0800
ENDCHAR
STARTCHAR questiondown
ENCODING 191
SWIDTH 541 0
DWIDTH 10 0
BBX 8 15 1 -1
BITMAP
08
00
00
00
00
00
3C
04
0C
18
20
40
40
83
7C
ENDCHAR
STARTCHAR Agrave
ENCODING 192
SWIDTH 390 0
DWIDTH 7 0
BBX 8 16 1 0
BITMAP
40
20
40
40
60
60
50
50
90
8B
8C
B8
C8
84
84
84
ENDCHAR
STARTCHAR Aacute
ENCODING 193
SWIDTH 390 0
DWIDTH 7 0
BBX 9 17 0 0
BITMAP
2000
6000
0000
2000
2000
3000
5000
5000
4800
4800
4980
4E00
7C00
4400
4400
4200
8200
ENDCHAR
STARTCHAR Acircumflex
ENCODING 194
SWIDTH 390 0
DWIDTH 7 0
BBX 10 19 -1 0
BITMAP
1000
3000
2800
4400
8200
1000
1000
1800
2800
2800
2400
2400
24C0
2700
3E00
2200
2200
2100
4100
ENDCHAR
STARTCHAR Atilde
ENCODING 195
SWIDTH 390 0
DWIDTH 7 0
BBX 9 18 0 0
BITMAP
6600
9400
9800
0000
2000
2000
3000
5000
5000
4800
4800
4980
4E00
7C00
4400
4400
4200
8200
ENDCHAR
STARTCHAR Adieresis
ENCODING 196
SWIDTH 390 0
DWIDTH 7 0
BBX 9 16 0 0
BITMAP
5800
0000
2000
2000
3000
5000
5000
4800
4800
4980
4E00
7C00
4400
4400
4200
8200
ENDCHAR
STARTCHAR Aring
ENCODING 197
SWIDTH 390 0
DWIDTH 7 0
BBX 9 16 0 0
BITMAP
7000
9000
D000
2000
3000
5000
5000
4800
4800
4980
4E00
7C00
4400
4400
4200
8200
ENDCHAR
STARTCHAR AE
ENCODING 198
SWIDTH 708 0
DWIDTH 13 0
BBX 13 14 0 0
BITMAP
2000
2460
3580
5600
5400
4C20
4C40
4D80
4E00
7E08
4630
4640
4380
8200
ENDCHAR
STARTCHAR Ccedilla
ENCODING 199
SWIDTH 487 0
DWIDTH 9 0
BBX 8 19 0 -6
BITMAP
1C
12
20
20
40
40
40
40
81
81
82
44
78
10
10
1C
06
06
18
ENDCHAR
STARTCHAR Egrave
ENCODING 200
SWIDTH 474 0
DWIDTH 9 0
BBX 7 16 1 0
BITMAP
40
20
00
8C
F0
C0
80
84
88
B0
C0
82
84
88
F0
C0
ENDCHAR
STARTCHAR Eacute
ENCODING 201
SWIDTH 474 0
DWIDTH 9 0
BBX 7 16 1 0
BITMAP
10
30
00
8C
F0
C0
80
84
88
B0
C0
82
84
88
F0
C0
ENDCHAR
STARTCHAR Ecircumflex
ENCODING 202
SWIDTH 474 0
DWIDTH 9 0
BBX 7 19 1 0
BITMAP
10
30
48
44
82
00
8C
F0
C0
80
84
88
B0
C0
82
84
88
F0
C0
ENDCHAR
STARTCHAR Edieresis
ENCODING 203
SWIDTH 474 0
DWIDTH 9 0
BBX 7 16 1 0
BITMAP
58
00
00
8C
F0
C0
80
84
88
B0
C0
82
84
88
F0
C0
ENDCHAR
STARTCHAR Igrave
ENCODING 204
SWIDTH 153 0
DWIDTH 3 0
BBX 2 17 0 0
BITMAP
80
40
00
00
40
40
40
40
40
40
40
40
40
40
40
40
40
ENDCHAR
STARTCHAR Iacute
ENCODING 205
SWIDTH 153 0
DWIDTH 3 0
BBX 2 17 1 0
BITMAP
40
80
00
00
80
80
80
80
80
80
80
80
80
80
80
80
80
ENDCHAR
STARTCHAR Icircumflex
ENCODING 206
SWIDTH 153 0
DWIDTH 3 0
BBX 6 19 -1 0
BITMAP
20
50
50
88
84
00
20
20
20
20
20
20
20
20
20
20
20
20
20
ENDCHAR
STARTCHAR Idieresis
ENCODING 207
SWIDTH 153 0
DWIDTH 3 0
BBX 3 15 0 0
BITMAP
A0
00
40
40
40
40
40
40
40
40
40
40
40
40
40
ENDCHAR
STARTCHAR Eth
ENCODING 208
SWIDTH 554 0
DWIDTH 10 0
BBX 10 13 0 0
BITMAP
2000
7F00
A080
2040
2040
2080
2080
2100
3A00
E600
2C00
3800
1000
ENDCHAR
STARTCHAR Ntilde
ENCODING 209
SWIDTH 541 0
DWIDTH 10 0
BBX 8 17 1 0
BITMAP
66
94
98
02
02
82
82
C2
E1
A1
91
89
85
85
83
41
40
ENDCHAR
STARTCHAR Ograve
ENCODING 210
SWIDTH 382 0
DWIDTH 7 0
BBX 7 16 0 0
BITMAP
08
0C
00
00
18
24
44
42
42
42
84
84
84
8C
48
70
ENDCHAR
STARTCHAR Oacute
ENCODING 211
SWIDTH 382 0
DWIDTH 7 0
BBX 7 15 0 0
BITMAP
10
30
00
18
24
44
42
42
42
84
84
84
8C
48
70
ENDCHAR
STARTCHAR Ocircumflex
ENCODING 212
SWIDTH 382 0
DWIDTH 7 0
BBX 7 17 0 0
BITMAP
10
30
48
44
82
18
24
44
42
42
42
84
84
84
8C
48
70
ENDCHAR
STARTCHAR Otilde
ENCODING 213
SWIDTH 382 0
DWIDTH 7 0
BBX 8 16 0 0
BITMAP
33
4A
4C
00
18
24
44
42
42
42
84
84
84
8C
48
70
ENDCHAR
STARTCHAR Odieresis
ENCODING 214
SWIDTH 382 0
DWIDTH 7 0
BBX 7 14 0 0
BITMAP
14
00
18
24
44
42
42
42
84
84
84
8C
48
70
ENDCHAR
STARTCHAR multiply
ENCODING 215
SWIDTH 454 0
DWIDTH 8 0
BBX 5 7 1 2
BITMAP
80
48
50
30
50
D0
08
ENDCHAR
STARTCHAR Oslash
ENCODING 216
SWIDTH 382 0
DWIDTH 7 0
BBX 7 15 0 -2
BITMAP
04
1C
2C
4E
4A
52
52
94
A4
A4
AC
48
70
40
40
ENDCHAR
STARTCHAR Ugrave
ENCODING 217
SWIDTH 450 0
DWIDTH 8 0
BBX 7 16 1 -2
BITMAP
20
30
00
86
86
86
84
84
84
8C
8C
8A
92
62
02
02
ENDCHAR
STARTCHAR Uacute
ENCODING 218
SWIDTH 450 0
DWIDTH 8 0
BBX 7 15 1 -2
BITMAP
10
30
86
86
86
84
84
84
8C
8C
8A
92
62
02
02
ENDCHAR
STARTCHAR Ucircumflex
ENCODING 219
SWIDTH 450 0
DWIDTH 8 0
BBX 7 19 1 -2
BITMAP
20
30
48
84
84
00
86
86
86
84
84
84
8C
8C
8A
92
62
02
02
ENDCHAR
STARTCHAR Udieresis
ENCODING 220
SWIDTH 450 0
DWIDTH 8 0
BBX 7 15 1 -2
BITMAP
68
00
86
86
86
84
84
84
8C
8C
8A
92
62
02
02
ENDCHAR
STARTCHAR Yacute
ENCODING 221
SWIDTH 483 0
DWIDTH 9 0
BBX 8 17 0 0
BITMAP
04
08
00
01
01
81
81
42
22
12
1C
0C
0C
08
08
08
10
ENDCHAR
STARTCHAR Thorn
ENCODING 222
SWIDTH 398 0
DWIDTH 7 0
BBX 6 15 1 0
BITMAP
80
80
80
98
EC
C4
84
84
88
90
E0
80
80
80
80
ENDCHAR
STARTCHAR germandbls
ENCODING 223
SWIDTH 537 0
DWIDTH 10 0
BBX 9 13 0 0
BITMAP
1E00
A200
4400
4400
4F80
5880
7080
6100
2200
2600
2C00
2800
2000
ENDCHAR
STARTCHAR agrave
ENCODING 224
SWIDTH 366 0
DWIDTH 7 0
BBX 6 13 0 0
BITMAP
20
10
00
08
1C
2C
6C
4C
54
94
A4
E4
44
ENDCHAR
STARTCHAR aacute
ENCODING 225
SWIDTH 366 0
DWIDTH 7 0
BBX 6 13 0 0
BITMAP
08
10
00
08
1C
2C
6C
4C
54
94
A4
E4
44
ENDCHAR
STARTCHAR acircumflex
ENCODING 226
SWIDTH 366 0
DWIDTH 7 0
BBX 6 17 0 0
BITMAP
20
30
48
44
84
00
00
08
1C
2C
6C
4C
54
94
A4
E4
44
ENDCHAR
STARTCHAR atilde
ENCODING 227
SWIDTH 366 0
DWIDTH 7 0
BBX 7 14 0 0
BITMAP
72
52
8C
00
08
1C
2C
6C
4C
54
94
A4
E4
44
ENDCHAR
STARTCHAR adieresis
ENCODING 228
SWIDTH 366 0
DWIDTH 7 0
BBX 6 13 0 0
BITMAP
68
00
00
08
1C
2C
6C
4C
54
94
A4
E4
44
ENDCHAR
STARTCHAR aring
ENCODING 229
SWIDTH 366 0
DWIDTH 7 0
BBX 6 12 0 0
BITMAP
3C
24
38
1C
2C
6C
4C
54
94
A4
E4
44
ENDCHAR
STARTCHAR ae
ENCODING 230
SWIDTH 705 0
DWIDTH 13 0
BBX 12 10 0 0
BITMAP
09C0
1F20
2E40
6F80
4E00
5C10
9430
A420
E6C0
4500
ENDCHAR
STARTCHAR ccedilla
ENCODING 231
SWIDTH 390 0
DWIDTH 7 0
BBX 6 16 0 -5
BITMAP
10
30
48
48
40
40
80
84
44
44
38
20
20
38
04
3C
ENDCHAR
STARTCHAR egrave
ENCODING 232
SWIDTH 461 0
DWIDTH 8 0
BBX 8 13 0 0
BITMAP
10
08
00
08
34
24
48
70
C1
43
42
4C
30
ENDCHAR
STARTCHAR eacute
ENCODING 233
SWIDTH 461 0
DWIDTH 8 0
BBX 8 13 0 0
BITMAP
0C
18
00
08
34
24
48
70
C1
43
42
4C
30
ENDCHAR
STARTCHAR ecircumflex
ENCODING 234
SWIDTH 461 0
DWIDTH 8 0
BBX 8 17 0 0
BITMAP
10
18
24
22
42
00
00
08
34
24
48
70
C1
43
42
4C
30
ENDCHAR
STARTCHAR edieresis
ENCODING 235
SWIDTH 461 0
DWIDTH 8 0
BBX 8 13 0 0
BITMAP
34
00
00
08
34
24
48
70
C1
43
42
4C
30
ENDCHAR
STARTCHAR igrave
ENCODING 236
SWIDTH 132 0
DWIDTH 2 0
BBX 2 15 0 0
BITMAP
80
80
40
00
00
40
40
40
40
40
40
40
40
40
40
ENDCHAR
STARTCHAR iacute
ENCODING 237
SWIDTH 132 0
DWIDTH 2 0
BBX 3 15 0 0
BITMAP
60
C0
00
00
00
40
40
40
40
40
40
40
40
40
40
ENDCHAR
STARTCHAR icircumflex
ENCODING 238
SWIDTH 132 0
DWIDTH 2 0
BBX 6 17 -2 0
BITMAP
20
30
48
44
84
00
00
10
10
10
10
10
10
10
10
10
10
ENDCHAR
STARTCHAR idieresis
ENCODING 239
SWIDTH 132 0
DWIDTH 2 0
BBX 4 13 -1 0
BITMAP
D0
00
00
20
20
20
20
20
20
20
20
20
20
ENDCHAR
STARTCHAR eth
ENCODING 240
SWIDTH 481 0
DWIDTH 9 0
BBX 8 11 1 0
BITMAP
20
10
10
7F
08
44
F4
8C
8C
88
70
ENDCHAR
STARTCHAR ntilde
ENCODING 241
SWIDTH 483 0
DWIDTH 9 0
BBX 7 15 1 0
BITMAP
72
96
8C
00
08
9C
92
A2
A2
A2
C2
C2
C2
C2
82
ENDCHAR
STARTCHAR ograve
ENCODING 242
SWIDTH 266 0
DWIDTH 5 0
BBX 5 13 0 0
BITMAP
40
20
00
60
50
50
88
88
90
90
90
B0
60
ENDCHAR
STARTCHAR oacute
ENCODING 243
SWIDTH 266 0
DWIDTH 5 0
BBX 5 13 0 0
BITMAP
10
20
00
60
50
50
88
88
90
90
90
B0
60
ENDCHAR
STARTCHAR ocircumflex
ENCODING 244
SWIDTH 266 0
DWIDTH 5 0
BBX 7 17 -1 0
BITMAP
10
30
48
44
82
00
00
30
28
28
44
44
48
48
48
58
30
ENDCHAR
STARTCHAR otilde
ENCODING 245
SWIDTH 266 0
DWIDTH 5 0
BBX 7 14 -1 0
BITMAP
72
52
8C
00
30
28
28
44
44
48
48
48
58
30
ENDCHAR
STARTCHAR odieresis
ENCODING 246
SWIDTH 266 0
DWIDTH 5 0
BBX 5 13 0 0
BITMAP
50
00
00
60
50
50
88
88
90
90
90
B0
60
ENDCHAR
STARTCHAR divide
ENCODING 247
SWIDTH 345 0
DWIDTH 6 0
BBX 6 6 0 2
BITMAP
20
00
7C
80
00
10
ENDCHAR
STARTCHAR oslash
ENCODING 248
SWIDTH 266 0
DWIDTH 5 0
BBX 5 12 0 -2
BITMAP
68
50
50
A8
A8
B0
D0
D0
F0
E0
80
80
ENDCHAR
STARTCHAR ugrave
ENCODING 249
SWIDTH 387 0
DWIDTH 7 0
BBX 5 13 1 0
BITMAP
40
20
00
00
88
88
88
88
88
98
98
B8
E8
ENDCHAR
STARTCHAR uacute
ENCODING 250
SWIDTH 387 0
DWIDTH 7 0
BBX 5 13 1 0
BITMAP
10
20
00
00
88
88
88
88
88
98
98
B8
E8
ENDCHAR
STARTCHAR ucircumflex
ENCODING 251
SWIDTH 387 0
DWIDTH 7 0
BBX 7 17 0 0
BITMAP
10
30
28
44
82
00
00
00
44
44
44
44
44
4C
4C
5C
74
ENDCHAR
STARTCHAR udieresis
ENCODING 252
SWIDTH 387 0
DWIDTH 7 0
BBX 5 13 1 0
BITMAP
50
00
00
00
88
88
88
88
88
98
98
B8
E8
ENDCHAR
STARTCHAR yacute
ENCODING 253
SWIDTH 363 0
DWIDTH 7 0
BBX 6 20 0 -7
BITMAP
08
10
00
00
04
C4
44
24
24
14
1C
0C
04
04
04
04
04
04
08
08
ENDCHAR
STARTCHAR thorn
ENCODING 254
SWIDTH 439 0
DWIDTH 8 0
BBX 7 12 1 0
BITMAP
80
BC
C2
84
84
88
B0
E0
80
80
80
80
ENDCHAR
STARTCHAR ydieresis
ENCODING 255
SWIDTH 363 0
DWIDTH 7 0
BBX 6 20 0 -7
BITMAP
68
00
00
00
04
C4
44
24
24
14
1C
0C
04
04
04
04
04
04
08
08
ENDCHAR
STARTCHAR Amacron
ENCODING 256
SWIDTH 390 0
DWIDTH 7 0
BBX 9 15 0 0
BITMAP
FE00
2000
2000
3000
5000
5000
4800
4800
4980
4E00
7C00
4400
4400
4200
8200
ENDCHAR
STARTCHAR amacron
ENCODING 257
SWIDTH 366 0
DWIDTH 7 0
BBX 7 13 0 0
BITMAP
FE
00
00
08
1C
2C
6C
4C
54
94
A4
E4
44
ENDCHAR
STARTCHAR Abreve
ENCODING 258
SWIDTH 390 0
DWIDTH 7 0
BBX 9 17 0 0
BITMAP
4800
3800
0000
2000
2000
3000
5000
5000
4800
4800
4980
4E00
7C00
4400
4400
4200
8200
ENDCHAR
STARTCHAR abreve
ENCODING 259
SWIDTH 366 0
DWIDTH 7 0
BBX 6 13 0 0
BITMAP
44
38
00
08
1C
2C
6C
4C
54
94
A4
E4
44
ENDCHAR
STARTCHAR Aogonek
ENCODING 260
SWIDTH 390 0
DWIDTH 7 0
BBX 9 18 0 -4
BITMAP
2000
2000
3000
5000
5000
4800
4800
4980
4E00
7C00
4400
4400
4200
8200
0400
0400
0800
0780
ENDCHAR
STARTCHAR aogonek
ENCODING 261
SWIDTH 366 0
DWIDTH 7 0
BBX 8 14 0 -4
BITMAP
08
1C
2C
6C
4C
54
94
A4
E4
44
08
08
0B
06
ENDCHAR
STARTCHAR Cacute
ENCODING 262
SWIDTH 487 0
DWIDTH 9 0
BBX 8 16 0 0
BITMAP
0C
18
00
1C
12
20
20
40
40
40
40
81
81
82
44
78
ENDCHAR
STARTCHAR cacute
ENCODING 263
SWIDTH 390 0
DWIDTH 7 0
BBX 6 14 0 0
BITMAP
10
30
00
10
30
48
48
40
40
80
84
44
44
38
ENDCHAR
STARTCHAR Ccircumflex
ENCODING 264
SWIDTH 487 0
DWIDTH 9 0
BBX 8 18 0 0
BITMAP
10
18
24
22
42
1C
12
20
20
40
40
40
40
81
81
82
44
78
ENDCHAR
STARTCHAR ccircumflex
ENCODING 265
SWIDTH 390 0
DWIDTH 7 0
BBX 7 17 0 0
BITMAP
10
30
28
44
82
00
10
30
48
48
40
40
80
84
44
44
38
ENDCHAR
STARTCHAR Cdotaccent
ENCODING 266
SWIDTH 487 0
DWIDTH 9 0
BBX 8 16 0 0
BITMAP
08
00
00
1C
12
20
20
40
40
40
40
81
81
82
44
78
ENDCHAR
STARTCHAR cdotaccent
ENCODING 267
SWIDTH 390 0
DWIDTH 7 0
BBX 6 12 0 0
BITMAP
20
10
70
50
48
40
80
80
84
84
44
38
ENDCHAR
STARTCHAR Ccaron
ENCODING 268
SWIDTH 487 0
DWIDTH 9 0
BBX 8 16 0 0
BITMAP
62
14
18
1C
12
20
20
40
40
40
40
81
81
82
44
78
ENDCHAR
STARTCHAR ccaron
ENCODING 269
SWIDTH 390 0
DWIDTH 7 0
BBX 7 14 0 0
BITMAP
46
28
10
10
30
48
48
40
40
80
84
44
44
38
ENDCHAR
STARTCHAR Dcaron
ENCODING 270
SWIDTH 554 0
DWIDTH 10 0
BBX 10 16 0 0
BITMAP
3100
1200
0C00
2000
7F00
A080
2040
2040
2080
2080
2100
2200
2600
2C00
3800
1000
ENDCHAR
STARTCHAR Emacron
ENCODING 274
SWIDTH 474 0
DWIDTH 9 0
BBX 7 15 1 0
BITMAP
FC
00
8C
F0
C0
80
84
88
B0
C0
82
84
88
F0
C0
ENDCHAR
STARTCHAR emacron
ENCODING 275
SWIDTH 461 0
DWIDTH 8 0
BBX 8 13 0 0
BITMAP
7E
00
00
08
34
24
48
70
C1
43
42
4C
30
ENDCHAR
STARTCHAR Ebreve
ENCODING 276
SWIDTH 474 0
DWIDTH 9 0
BBX 7 16 1 0
BITMAP
4C
38
00
8C
F0
C0
80
84
88
B0
C0
82
84
88
F0
C0
ENDCHAR
STARTCHAR ebreve
ENCODING 277
SWIDTH 461 0
DWIDTH 8 0
BBX 8 13 0 0
BITMAP
26
1C
00
08
34
24
48
70
C1
43
42
4C
30
ENDCHAR
STARTCHAR Edotaccent
ENCODING 278
SWIDTH 474 0
DWIDTH 9 0
BBX 7 14 1 0
BITMAP
20
8C
F0
C0
80
84
88
B0
C0
82
84
88
F0
C0
ENDCHAR
STARTCHAR edotaccent
ENCODING 279
SWIDTH 461 0
DWIDTH 8 0
BBX 8 11 0 0
BITMAP
08
08
34
24
48
70
C1
43
42
4C
30
ENDCHAR
STARTCHAR Eogonek
ENCODING 280
SWIDTH 474 0
DWIDTH 9 0
BBX 7 15 1 -2
BITMAP
8C
F0
C0
80
84
88
B0
C0
82
84
88
F0
D0
16
0C
ENDCHAR
STARTCHAR eogonek
ENCODING 281
SWIDTH 461 0
DWIDTH 8 0
BBX 8 14 0 -4
BITMAP
08
34
24
48
70
C1
43
42
44
38
10
20
36
18
ENDCHAR
STARTCHAR Ecaron
ENCODING 282
SWIDTH 474 0
DWIDTH 9 0
BBX 7 16 1 0
BITMAP
84
58
20
8C
F0
C0
80
84
88
B0
C0
82
84
88
F0
C0
ENDCHAR
STARTCHAR ecaron
ENCODING 283
SWIDTH 461 0
DWIDTH 8 0
BBX 8 14 0 0
BITMAP
62
24
18
00
08
34
24
48
70
C1
43
42
4C
30
ENDCHAR
STARTCHAR Gcircumflex
ENCODING 284
SWIDTH 591 0
DWIDTH 11 0
BBX 10 19 0 -2
BITMAP
0800
0C00
1200
1100
2100
0300
0C00
1000
1000
2000
43C0
4480
4180
8180
8280
4C80
3080
0080
0080
ENDCHAR
STARTCHAR gcircumflex
ENCODING 285
SWIDTH 437 0
DWIDTH 8 0
BBX 7 25 0 -8
BITMAP
10
28
24
46
42
00
00
0C
16
26
4A
4A
5A
92
A2
62
02
02
02
02
02
04
04
18
70
ENDCHAR
STARTCHAR Gbreve
ENCODING 286
SWIDTH 591 0
DWIDTH 11 0
BBX 10 16 0 -2
BITMAP
0900
0E00
0300
0C00
1000
1000
2000
43C0
4480
4180
8180
8280
4C80
3080
0080
0080
ENDCHAR
STARTCHAR gbreve
ENCODING 287
SWIDTH 437 0
DWIDTH 8 0
BBX 7 22 0 -8
BITMAP
24
1C
00
00
0C
16
26
4A
4A
5A
92
A2
62
02
02
02
02
02
04
04
18
70
ENDCHAR
STARTCHAR Gdotaccent
ENCODING 288
SWIDTH 591 0
DWIDTH 11 0
BBX 10 17 1 -2
BITMAP
0800
0000
0000
0600
0800
1000
2000
4000
47C0
8180
8100
8300
8700
9900
7100
0100
0100
ENDCHAR
STARTCHAR gdotaccent
ENCODING 289
SWIDTH 437 0
DWIDTH 8 0
BBX 7 20 0 -8
BITMAP
0C
00
0C
16
26
4A
4A
5A
92
A2
62
02
02
02
02
02
04
04
18
70
ENDCHAR
STARTCHAR Gcommaaccent
ENCODING 290
SWIDTH 591 0
DWIDTH 11 0
BBX 10 18 0 -6
BITMAP
0300
0C00
1000
1000
2000
43C0
4480
4180
8180
8280
4C80
3080
0080
0080
0400
0400
0400
0400
ENDCHAR
STARTCHAR Hcircumflex
ENCODING 292
SWIDTH 424 0
DWIDTH 8 0
BBX 7 19 0 0
BITMAP
10
30
28
44
82
00
00
84
44
44
44
44
46
5A
62
42
42
42
42
ENDCHAR
STARTCHAR hcircumflex
ENCODING 293
SWIDTH 466 0
DWIDTH 8 0
BBX 8 17 1 0
BITMAP
08
18
14
22
C1
80
80
80
8C
9A
B2
A2
C2
C2
82
82
82
ENDCHAR
STARTCHAR Hbar
ENCODING 294
SWIDTH 424 0
DWIDTH 8 0
BBX 7 12 0 0
BITMAP
84
44
44
FE
44
46
5A
62
42
42
42
42
ENDCHAR
STARTCHAR hbar
ENCODING 295
SWIDTH 466 0
DWIDTH 8 0
BBX 9 13 -1 0
BITMAP
2000
2000
2000
3C00
E300
2680
2C80
2880
3080
3080
2080
2080
4080
ENDCHAR
STARTCHAR Itilde
ENCODING 296
SWIDTH 153 0
DWIDTH 3 0
BBX 7 18 -2 0
BITMAP
72
96
9C
00
00
10
10
10
10
10
10
10
10
10
10
10
10
10
ENDCHAR
STARTCHAR itilde
ENCODING 297
SWIDTH 132 0
DWIDTH 2 0
BBX 7 14 -2 0
BITMAP
E6
94
08
00
10
10
10
10
10
10
10
10
10
10
ENDCHAR
STARTCHAR imacron
ENCODING 299
SWIDTH 132 0
DWIDTH 2 0
BBX 6 13 -2 0
BITMAP
FC
00
00
10
10
10
10
10
10
10
10
10
10
ENDCHAR
STARTCHAR Ibreve
ENCODING 300
SWIDTH 153 0
DWIDTH 3 0
BBX 5 17 -1 0
BITMAP
88
70
00
00
20
20
20
20
20
20
20
20
20
20
20
20
20
ENDCHAR
STARTCHAR ibreve
ENCODING 301
SWIDTH 132 0
DWIDTH 2 0
BBX 5 14 -1 0
BITMAP
98
70
00
00
20
20
20
20
20
20
20
20
20
20
ENDCHAR
STARTCHAR Iogonek
ENCODING 302
SWIDTH 153 0
DWIDTH 3 0
BBX 4 17 0 -4
BITMAP
40
40
40
40
40
40
40
40
40
40
40
40
40
80
80
F0
20
ENDCHAR
STARTCHAR iogonek
ENCODING 303
SWIDTH 132 0
DWIDTH 2 0
BBX 4 17 0 -4
BITMAP
80
00
00
40
40
40
40
40
40
40
40
40
40
80
80
90
E0
ENDCHAR
STARTCHAR Idotaccent
ENCODING 304
SWIDTH 153 0
DWIDTH 3 0
BBX 1 16 1 0
BITMAP
80
00
00
80
80
80
80
80
80
80
80
80
80
80
80
80
ENDCHAR
STARTCHAR dotlessi
ENCODING 305
SWIDTH 132 0
DWIDTH 2 0
BBX 1 10 1 0
BITMAP
80
80
80
80
80
80
80
80
80
80
ENDCHAR
STARTCHAR Jcircumflex
ENCODING 308
SWIDTH 371 0
DWIDTH 7 0
BBX 8 19 0 -1
BITMAP
10
18
24
22
41
08
08
08
08
04
04
04
04
04
04
84
84
44
38
ENDCHAR
STARTCHAR jcircumflex
ENCODING 309
SWIDTH 112 0
DWIDTH 2 0
BBX 7 23 -3 -6
BITMAP
10
18
24
42
42
00
00
00
10
10
10
10
08
08
08
08
08
08
08
08
88
90
70
ENDCHAR
STARTCHAR Kcommaaccent
ENCODING 310
SWIDTH 524 0
DWIDTH 9 0
BBX 9 18 0 -6
BITMAP
C000
4200
4400
4800
4800
5000
6000
6000
6000
3F80
2000
2000
0000
0000
0800
0800
0800
0800
ENDCHAR
STARTCHAR kcommaaccent
ENCODING 311
SWIDTH 428 0
DWIDTH 8 0
BBX 7 20 0 -6
BITMAP
40
40
40
42
42
46
4C
48
58
70
40
60
5C
82
80
00
10
10
10
10
ENDCHAR
STARTCHAR Lacute
ENCODING 313
SWIDTH 537 0
DWIDTH 10 0
BBX 9 13 1 0
BITMAP
0800
1800
8000
8000
8000
8000
8000
8000
8000
8180
8E00
B800
E000
ENDCHAR
STARTCHAR lacute
ENCODING 314
SWIDTH 137 0
DWIDTH 2 0
BBX 2 20 0 0
BITMAP
40
C0
00
00
00
80
40
40
40
40
40
40
40
40
40
40
40
40
40
40
ENDCHAR
STARTCHAR Lcommaaccent
ENCODING 315
SWIDTH 537 0
DWIDTH 10 0
BBX 9 17 1 -6
BITMAP
8000
8000
8000
8000
8000
8000
8000
8180
8E00
B800
E000
0000
0000
1000
1000
1000
1000
ENDCHAR
STARTCHAR lcommaaccent
ENCODING 316
SWIDTH 137 0
DWIDTH 2 0
BBX 2 21 0 -6
BITMAP
80
40
40
40
40
40
40
40
40
40
40
40
40
40
40
00
00
C0
40
40
80
ENDCHAR
STARTCHAR Lcaron
ENCODING 317
SWIDTH 537 0
DWIDTH 10 0
BBX 9 16 1 0
BITMAP
8400
5800
2000
0000
0000
8000
8000
8000
8000
8000
8000
8000
8180
8E00
B800
E000
ENDCHAR
STARTCHAR Ldot
ENCODING 319
SWIDTH 537 0
DWIDTH 10 0
BBX 9 11 1 0
BITMAP
8000
8000
8000
8000
8000
8000
9800
8180
8E00
B800
E000
ENDCHAR
STARTCHAR ldot
ENCODING 320
SWIDTH 267 0
DWIDTH 5 0
BBX 4 15 0 0
BITMAP
80
40
40
40
40
40
40
40
40
40
50
40
40
40
40
ENDCHAR
STARTCHAR Lslash
ENCODING 321
SWIDTH 537 0
DWIDTH 10 0
BBX 11 11 -1 0
BITMAP
2000
2000
2000
2000
2000
2E00
7800
A060
2380
2E00
3800
ENDCHAR
STARTCHAR lslash
ENCODING 322
SWIDTH 137 0
DWIDTH 2 0
BBX 7 15 -2 0
BITMAP
20
10
10
10
10
10
10
10
10
16
38
D0
10
10
10
ENDCHAR
STARTCHAR Nacute
ENCODING 323
SWIDTH 541 0
DWIDTH 10 0
BBX 8 15 1 0
BITMAP
10
32
02
82
82
C2
E1
A1
91
89
85
85
83
41
40
ENDCHAR
STARTCHAR nacute
ENCODING 324
SWIDTH 483 0
DWIDTH 9 0
BBX 7 13 1 0
BITMAP
10
30
08
9C
92
A2
A2
A2
C2
C2
C2
C2
82
ENDCHAR
STARTCHAR Ncommaaccent
ENCODING 325
SWIDTH 541 0
DWIDTH 10 0
BBX 8 20 1 -6
BITMAP
02
02
82
82
C2
E1
A1
91
89
85
85
83
41
40
00
00
10
10
10
10
ENDCHAR
STARTCHAR ncommaaccent
ENCODING 326
SWIDTH 483 0
DWIDTH 9 0
BBX 7 17 1 -6
BITMAP
08
9C
92
A2
A2
A2
C2
C2
C2
C2
82
00
00
10
10
10
10
ENDCHAR
STARTCHAR Ncaron
ENCODING 327
SWIDTH 541 0
DWIDTH 10 0
BBX 8 16 1 0
BITMAP
46
28
12
02
82
82
C2
E1
A1
91
89
85
85
83
41
40
ENDCHAR
STARTCHAR ncaron
ENCODING 328
SWIDTH 483 0
DWIDTH 9 0
BBX 7 14 1 0
BITMAP
C4
28
30
08
9C
92
A2
A2
A2
C2
C2
C2
C2
82
ENDCHAR
STARTCHAR napostrophe
ENCODING 329
SWIDTH 483 0
DWIDTH 9 0
BBX 7 15 1 0
BITMAP
40
40
40
40
08
9C
92
A2
A2
A2
C2
C2
C2
C2
82
ENDCHAR
STARTCHAR Omacron
ENCODING 332
SWIDTH 382 0
DWIDTH 7 0
BBX 8 14 0 0
BITMAP
7F
00
18
24
44
42
42
42
84
84
84
8C
48
70
ENDCHAR
STARTCHAR omacron
ENCODING 333
SWIDTH 266 0
DWIDTH 5 0
BBX 7 13 -1 0
BITMAP
FE
00
00
30
28
28
44
44
48
48
48
58
30
ENDCHAR
STARTCHAR Obreve
ENCODING 334
SWIDTH 382 0
DWIDTH 7 0
BBX 7 15 0 0
BITMAP
44
38
00
18
24
44
42
42
42
84
84
84
8C
48
70
ENDCHAR
STARTCHAR obreve
ENCODING 335
SWIDTH 266 0
DWIDTH 5 0
BBX 5 13 0 0
BITMAP
C8
70
00
60
50
50
88
88
90
90
90
B0
60
ENDCHAR
STARTCHAR Ohungarumlaut
ENCODING 336
SWIDTH 382 0
DWIDTH 7 0
BBX 7 16 0 0
BITMAP
0A
1E
04
00
18
24
44
42
42
42
84
84
84
8C
48
70
ENDCHAR
STARTCHAR ohungarumlaut
ENCODING 337
SWIDTH 266 0
DWIDTH 5 0
BBX 5 13 0 0
BITMAP
28
50
20
60
50
50
88
88
90
90
90
B0
60
ENDCHAR
STARTCHAR OE
ENCODING 338
SWIDTH 732 0
DWIDTH 13 0
BBX 13 13 0 0
BITMAP
0430
1EC0
2700
4600
4200
4220
42C0
8700
8600
8618
8E20
4AC0
7300
ENDCHAR
STARTCHAR oe
ENCODING 339
SWIDTH 628 0
DWIDTH 11 0
BBX 11 10 0 0
BITMAP
6180
52C0
54C0
8D00
8E00
9820
9820
9840
B480
6700
ENDCHAR
STARTCHAR Racute
ENCODING 340
SWIDTH 503 0
DWIDTH 9 0
BBX 8 17 1 0
BITMAP
08
18
00
9C
E3
82
84
98
A0
C0
80
E0
98
86
81
80
80
ENDCHAR
STARTCHAR racute
ENCODING 341
SWIDTH 396 0
DWIDTH 7 0
BBX 7 13 0 0
BITMAP
08
10
00
00
9E
50
70
60
60
60
60
20
20
ENDCHAR
STARTCHAR Rcommaaccent
ENCODING 342
SWIDTH 503 0
DWIDTH 9 0
BBX 8 20 1 -6
BITMAP
9C
E3
82
84
98
A0
C0
80
E0
98
86
81
80
80
00
00
10
10
10
10
ENDCHAR
STARTCHAR rcommaaccent
ENCODING 343
SWIDTH 396 0
DWIDTH 7 0
BBX 7 15 0 -6
BITMAP
9E
50
70
60
60
60
60
20
20
00
00
10
10
10
10
ENDCHAR
STARTCHAR Rcaron
ENCODING 344
SWIDTH 503 0
DWIDTH 9 0
BBX 8 18 1 0
BITMAP
46
28
10
00
9C
E3
82
84
98
A0
C0
80
E0
98
86
81
80
80
ENDCHAR
STARTCHAR rcaron
ENCODING 345
SWIDTH 396 0
DWIDTH 7 0
BBX 7 14 0 0
BITMAP
46
28
10
00
00
9E
50
70
60
60
60
60
20
20
ENDCHAR
STARTCHAR Sacute
ENCODING 346
SWIDTH 541 0
DWIDTH 10 0
BBX 9 16 0 0
BITMAP
0400
0C00
0000
0E00
1000
2000
4000
8000
8000
8000
7800
0780
0080
0100
0E00
3000
ENDCHAR
STARTCHAR sacute
ENCODING 347
SWIDTH 366 0
DWIDTH 7 0
BBX 6 13 0 0
BITMAP
08
10
00
00
18
60
40
80
9C
64
04
08
30
ENDCHAR
STARTCHAR Scircumflex
ENCODING 348
SWIDTH 541 0
DWIDTH 10 0
BBX 9 19 0 0
BITMAP
0800
0C00
1200
1100
2100
0000
0E00
1000
2000
4000
8000
8000
8000
7800
0780
0080
0100
0E00
3000
ENDCHAR
STARTCHAR scircumflex
ENCODING 349
SWIDTH 366 0
DWIDTH 7 0
BBX 7 15 0 0
BITMAP
10
30
28
44
82
00
18
60
40
80
9C
64
04
08
30
ENDCHAR
STARTCHAR Scedilla
ENCODING 350
SWIDTH 541 0
DWIDTH 10 0
BBX 10 17 0 -4
BITMAP
0E00
1000
2000
4000
8000
8000
8000
7800
0780
0080
0100
0E00
3200
0200
0380
0040
03C0
ENDCHAR
STARTCHAR scedilla
ENCODING 351
SWIDTH 366 0
DWIDTH 7 0
BBX 7 15 0 -6
BITMAP
18
60
40
80
9C
64
04
08
30
10
10
1C
06
0E
10
ENDCHAR
STARTCHAR Scaron
ENCODING 352
SWIDTH 541 0
DWIDTH 10 0
BBX 9 16 0 0
BITMAP
2300
1400
0800
0E00
1000
2000
4000
8000
8000
8000
7800
0780
0080
0100
0E00
3000
ENDCHAR
STARTCHAR scaron
ENCODING 353
SWIDTH 366 0
DWIDTH 7 0
BBX 6 13 0 0
BITMAP
C4
48
30
00
18
60
40
80
9C
64
04
08
30
ENDCHAR
STARTCHAR Tcommaaccent
ENCODING 354
SWIDTH 595 0
DWIDTH 11 0
BBX 13 19 0 -6
BITMAP
0238
3FC0
C200
0200
0200
0200
0200
0200
0200
0200
0100
0100
0100
0000
0000
0100
0100
0100
0100
ENDCHAR
STARTCHAR tcommaaccent
ENCODING 355
SWIDTH 268 0
DWIDTH 5 0
BBX 6 20 -1 -6
BITMAP
20
20
20
20
2C
70
E0
20
20
20
20
20
20
20
00
00
10
10
10
10
ENDCHAR
STARTCHAR Tcaron
ENCODING 356
SWIDTH 595 0
DWIDTH 11 0
BBX 13 17 0 0
BITMAP
08C0
0500
0200
0000
0238
3FC0
C200
0200
0200
0200
0200
0200
0200
0200
0100
0100
0100
ENDCHAR
STARTCHAR Tbar
ENCODING 358
SWIDTH 595 0
DWIDTH 11 0
BBX 13 13 0 0
BITMAP
0238
3FC0
C200
0200
0F80
1200
0200
0200
0200
0200
0100
0100
0100
ENDCHAR
STARTCHAR Utilde
ENCODING 360
SWIDTH 450 0
DWIDTH 8 0
BBX 7 17 1 -2
BITMAP
62
94
9C
00
86
86
86
84
84
84
8C
8C
8A
92
62
02
02
ENDCHAR
STARTCHAR utilde
ENCODING 361
SWIDTH 387 0
DWIDTH 7 0
BBX 7 13 0 0
BITMAP
62
96
9C
00
44
44
44
44
44
4C
4C
5C
74
ENDCHAR
STARTCHAR Umacron
ENCODING 362
SWIDTH 450 0
DWIDTH 8 0
BBX 7 15 1 -2
BITMAP
FC
00
86
86
86
84
84
84
8C
8C
8A
92
62
02
02
ENDCHAR
STARTCHAR umacron
ENCODING 363
SWIDTH 387 0
DWIDTH 7 0
BBX 7 13 0 0
BITMAP
FE
00
00
00
44
44
44
44
44
4C
4C
5C
74
ENDCHAR
STARTCHAR Ubreve
ENCODING 364
SWIDTH 450 0
DWIDTH 8 0
BBX 7 15 1 -2
BITMAP
48
38
86
86
86
84
84
84
8C
8C
8A
92
62
02
02
ENDCHAR
STARTCHAR ubreve
ENCODING 365
SWIDTH 387 0
DWIDTH 7 0
BBX 5 13 1 0
BITMAP
48
70
00
00
88
88
88
88
88
98
98
B8
E8
ENDCHAR
STARTCHAR Uring
ENCODING 366
SWIDTH 450 0
DWIDTH 8 0
BBX 7 16 1 -2
BITMAP
78
48
78
86
86
86
84
84
84
8C
8C
8A
92
62
02
02
ENDCHAR
STARTCHAR uring
ENCODING 367
SWIDTH 387 0
DWIDTH 7 0
BBX 5 12 1 0
BITMAP
70
88
70
88
88
88
88
88
98
98
B8
E8
ENDCHAR
STARTCHAR Uhungarumlaut
ENCODING 368
SWIDTH 450 0
DWIDTH 8 0
BBX 7 17 1 -2
BITMAP
28
78
10
00
86
86
86
84
84
84
8C
8C
8A
92
62
02
02
ENDCHAR
STARTCHAR uhungarumlaut
ENCODING 369
SWIDTH 387 0
DWIDTH 7 0
BBX 5 12 1 0
BITMAP
50
F0
20
88
88
88
88
88
98
98
B8
E8
ENDCHAR
STARTCHAR Uogonek
ENCODING 370
SWIDTH 450 0
DWIDTH 8 0
BBX 8 16 1 -5
BITMAP
86
86
86
84
84
84
8C
8C
8A
92
62
06
06
08
09
07
ENDCHAR
STARTCHAR uogonek
ENCODING 371
SWIDTH 387 0
DWIDTH 7 0
BBX 7 13 1 -4
BITMAP
88
88
88
88
88
98
98
B8
E8
10
10
10
1E
ENDCHAR
STARTCHAR Wcircumflex
ENCODING 372
SWIDTH 878 0
DWIDTH 16 0
BBX 15 19 0 0
BITMAP
0100
0280
0240
0440
0420
0000
0002
0002
C082
4184
41C4
2144
2244
2228
3228
1428
1418
1410
0800
ENDCHAR
STARTCHAR wcircumflex
ENCODING 373
SWIDTH 566 0
DWIDTH 10 0
BBX 10 17 0 0
BITMAP
0800
0C00
1200
1100
2100
0000
0000
0000
8880
4C80
4C80
2A80
2980
3980
1880
10C0
1000
ENDCHAR
STARTCHAR Ycircumflex
ENCODING 374
SWIDTH 483 0
DWIDTH 9 0
BBX 8 20 0 0
BITMAP
10
18
24
22
41
00
01
01
81
81
42
22
12
1C
0C
0C
08
08
08
10
ENDCHAR
STARTCHAR ycircumflex
ENCODING 375
SWIDTH 363 0
DWIDTH 7 0
BBX 6 24 0 -7
BITMAP
20
30
48
44
84
00
00
00
04
C4
44
24
24
14
1C
0C
04
04
04
04
04
04
08
08
ENDCHAR
STARTCHAR Ydieresis
ENCODING 376
SWIDTH 483 0
DWIDTH 9 0
BBX 8 14 0 0
BITMAP
01
15
81
81
42
22
12
1C
0C
0C
08
08
08
10
ENDCHAR
STARTCHAR Zacute
ENCODING 377
SWIDTH 670 0
DWIDTH 12 0
BBX 12 16 0 0
BITMAP
0200
0400
0000
0000
7FC0
0080
0100
0300
0600
0400
0800
1000
3000
2000
4010
FFE0
ENDCHAR
STARTCHAR zacute
ENCODING 378
SWIDTH 618 0
DWIDTH 11 0
BBX 12 13 0 0
BITMAP
0200
0400
0000
0000
0600
3A00
C600
0400
0800
0800
1000
13F0
1C00
ENDCHAR
STARTCHAR Zdotaccent
ENCODING 379
SWIDTH 670 0
DWIDTH 12 0
BBX 12 14 0 0
BITMAP
0600
0000
7FC0
0080
0100
0300
0600
0400
0800
1000
3000
2000
4010
FFE0
ENDCHAR
STARTCHAR zdotaccent
ENCODING 380
SWIDTH 618 0
DWIDTH 11 0
BBX 12 11 0 0
BITMAP
0400
0000
0600
3A00
C600
0400
0800
0800
1000
13F0
1C00
ENDCHAR
STARTCHAR Zcaron
ENCODING 381
SWIDTH 670 0
DWIDTH 12 0
BBX 12 16 0 0
BITMAP
1880
0500
0600
0000
7FC0
0080
0100
0300
0600
0400
0800
1000
3000
2000
4010
FFE0
ENDCHAR
STARTCHAR zcaron
ENCODING 382
SWIDTH 618 0
DWIDTH 11 0
BBX 12 13 0 0
BITMAP
2100
1200
0C00
0000
0600
3A00
C600
0400
0800
0800
1000
13F0
1C00
ENDCHAR
STARTCHAR florin
ENCODING 402
SWIDTH 345 0
DWIDTH 6 0
BBX 6 21 0 -5
BITMAP
10
28
28
20
20
20
20
2C
30
E0
20
20
20
20
20
20
20
20
20
E0
40
ENDCHAR
STARTCHAR AEacute
ENCODING 508
SWIDTH 708 0
DWIDTH 13 0
BBX 13 17 0 0
BITMAP
0400
0C00
0000
2000
2460
3580
5600
5400
4C20
4C40
4D80
4E00
7E08
4630
4640
4380
8200
ENDCHAR
STARTCHAR aeacute
ENCODING 509
SWIDTH 705 0
DWIDTH 13 0
BBX 12 13 0 0
BITMAP
0100
0200
0000
09C0
1F20
2E40
6F80
4E00
5C10
9430
A420
E6C0
4500
ENDCHAR
STARTCHAR Oslashacute
ENCODING 510
SWIDTH 382 0
DWIDTH 7 0
BBX 7 18 0 -2
BITMAP
08
18
00
04
1C
2C
4E
4A
52
52
94
A4
A4
AC
48
70
40
40
ENDCHAR
STARTCHAR oslashacute
ENCODING 511
SWIDTH 266 0
DWIDTH 5 0
BBX 5 16 0 -2
BITMAP
10
20
00
00
68
50
50
A8
A8
B0
D0
D0
F0
E0
80
80
ENDCHAR
STARTCHAR Scommaaccent
ENCODING 536
SWIDTH 541 0
DWIDTH 10 0
BBX 9 19 0 -6
BITMAP
0E00
1000
2000
4000
8000
8000
8000
7800
0780
0080
0100
0E00
3000
0000
0000
0800
0800
0800
0800
ENDCHAR
STARTCHAR scommaaccent
ENCODING 537
SWIDTH 366 0
DWIDTH 7 0
BBX 6 15 0 -6
BITMAP
18
60
40
80
9C
64
04
08
30
00
00
10
10
10
10
ENDCHAR
STARTCHAR circumflex
ENCODING 710
SWIDTH 390 0
DWIDTH 7 0
BBX 7 5 0 12
BITMAP
10
28
28
44
82
ENDCHAR
STARTCHAR caron
ENCODING 711
SWIDTH 390 0
DWIDTH 7 0
BBX 6 3 1 11
BITMAP
84
58
20
ENDCHAR
STARTCHAR breve
ENCODING 728
SWIDTH 390 0
DWIDTH 7 0
BBX 5 2 1 11
BITMAP
98
70
ENDCHAR
STARTCHAR dotaccent
ENCODING 729
SWIDTH 128 0
DWIDTH 2 0
BBX 2 1 0 10
BITMAP
C0
ENDCHAR
STARTCHAR ring
ENCODING 730
SWIDTH 266 0
DWIDTH 5 0
BBX 5 3 0 9
BITMAP
70
88
70
ENDCHAR
STARTCHAR ogonek
ENCODING 731
SWIDTH 366 0
DWIDTH 7 0
BBX 4 4 2 -4
BITMAP
C0
80
80
F0
ENDCHAR
STARTCHAR tilde
ENCODING 732
SWIDTH 458 0
DWIDTH 8 0
BBX 6 3 1 10
BITMAP
64
B4
98
ENDCHAR
STARTCHAR hungarumlaut
ENCODING 733
SWIDTH 239 0
DWIDTH 4 0
BBX 4 3 0 8
BITMAP
50
F0
20
ENDCHAR
STARTCHAR Wgrave
ENCODING 7808
SWIDTH 878 0
DWIDTH 16 0
BBX 15 17 0 0
BITMAP
0100
0080
0000
0000
0002
0002
C082
4184
41C4
2144
2244
2228
3228
1428
1418
1410
0800
ENDCHAR
STARTCHAR wgrave
ENCODING 7809
SWIDTH 566 0
DWIDTH 10 0
BBX 10 13 0 0
BITMAP
0800
0C00
0000
0000
8880
4C80
4C80
2A80
2980
3980
1880
10C0
1000
ENDCHAR
STARTCHAR Wacute
ENCODING 7810
SWIDTH 878 0
DWIDTH 16 0
BBX 15 16 0 0
BITMAP
0100
0300
0000
0002
0002
C082
4184
41C4
2144
2244
2228
3228
1428
1418
1410
0800
ENDCHAR
STARTCHAR wacute
ENCODING 7811
SWIDTH 566 0
DWIDTH 10 0
BBX 10 13 0 0
BITMAP
0600
0C00
0000
0000
8880
4C80
4C80
2A80
2980
3980
1880
10C0
1000
ENDCHAR
STARTCHAR Wdieresis
ENCODING 7812
SWIDTH 878 0
DWIDTH 16 0
BBX 15 15 0 0
BITMAP
0340
0000
0002
0002
C082
4184
41C4
2144
2244
2228
3228
1428
1418
1410
0800
ENDCHAR
STARTCHAR wdieresis
ENCODING 7813
SWIDTH 566 0
DWIDTH 10 0
BBX 10 13 0 0
BITMAP
1A00
0000
0000
0000
8880
4C80
4C80
2A80
2980
3980
1880
10C0
1000
ENDCHAR
STARTCHAR Ygrave
ENCODING 7922
SWIDTH 483 0
DWIDTH 9 0
BBX 8 17 0 0
BITMAP
10
08
00
01
01
81
81
42
22
12
1C
0C
0C
08
08
08
10
ENDCHAR
STARTCHAR ygrave
ENCODING 7923
SWIDTH 363 0
DWIDTH 7 0
BBX 6 20 0 -7
BITMAP
20
10
00
00
04
C4
44
24
24
14
1C
0C
04
04
04
04
04
04
08
08
ENDCHAR
STARTCHAR endash
ENCODING 8211
SWIDTH 399 0
DWIDTH 7 0
BBX 7 3 0 3
BITMAP
06
38
C0
ENDCHAR
STARTCHAR emdash
ENCODING 8212
SWIDTH 549 0
DWIDTH 10 0
BBX 9 3 0 3
BITMAP
0080
1F00
E000
ENDCHAR
STARTCHAR quoteleft
ENCODING 8216
SWIDTH 155 0
DWIDTH 3 0
BBX 1 5 1 6
BITMAP
80
80
80
80
80
ENDCHAR
STARTCHAR quoteright
ENCODING 8217
SWIDTH 155 0
DWIDTH 3 0
BBX 1 5 1 6
BITMAP
80
80
80
80
80
ENDCHAR
STARTCHAR quotesinglbase
ENCODING 8218
SWIDTH 155 0
DWIDTH 3 0
BBX 1 5 1 0
BITMAP
80
80
80
80
80
ENDCHAR
STARTCHAR quotedblleft
ENCODING 8220
SWIDTH 212 0
DWIDTH 4 0
BBX 3 5 0 9
BITMAP
A0
60
60
60
40
ENDCHAR
STARTCHAR quotedblright
ENCODING 8221
SWIDTH 212 0
DWIDTH 4 0
BBX 3 5 0 9
BITMAP
A0
60
60
60
40
ENDCHAR
STARTCHAR quotedblbase
ENCODING 8222
SWIDTH 212 0
DWIDTH 4 0
BBX 2 5 1 0
BITMAP
C0
C0
C0
C0
C0
ENDCHAR
STARTCHAR dagger
ENCODING 8224
SWIDTH 268 0
DWIDTH 5 0
BBX 6 14 -1 0
BITMAP
20
20
20
20
2C
70
E0
20
20
20
20
20
20
20
ENDCHAR
STARTCHAR daggerdbl
ENCODING 8225
SWIDTH 326 0
DWIDTH 6 0
BBX 6 14 0 0
BITMAP
20
20
20
20
3C
70
E0
3C
E0
20
20
20
20
20
ENDCHAR
STARTCHAR bullet
ENCODING 8226
SWIDTH 189 0
DWIDTH 3 0
BBX 2 3 1 4
BITMAP
40
C0
80
ENDCHAR
STARTCHAR ellipsis
ENCODING 8230
SWIDTH 387 0
DWIDTH 7 0
BBX 6 1 0 0
BITMAP
D4
ENDCHAR
STARTCHAR guilsinglleft
ENCODING 8249
SWIDTH 409 0
DWIDTH 7 0
BBX 6 9 1 2
BITMAP
04
08
30
60
80
C0
30
1C
04
ENDCHAR
STARTCHAR guilsinglright
ENCODING 8250
SWIDTH 450 0
DWIDTH 8 0
BBX 6 10 1 2
BITMAP
80
60
30
0C
04
08
10
20
C0
80
ENDCHAR
STARTCHAR fraction
ENCODING 8260
SWIDTH 306 0
DWIDTH 6 0
BBX 5 15 0 -2
BITMAP
08
08
10
10
10
10
20
20
20
40
40
40
80
80
80
ENDCHAR
STARTCHAR Euro
ENCODING 8364
SWIDTH 589 0
DWIDTH 11 0
BBX 10 13 0 0
BITMAP
0700
0900
0800
1000
1000
1E00
7000
2000
3E00
E000
2040
1080
1F00
ENDCHAR
STARTCHAR trademark
ENCODING 8482
SWIDTH 1278 0
DWIDTH 23 0
BBX 22 14 0 0
BITMAP
001808
023808
3FD418
C20A18
020A18
020928
020928
0208A4
0208C4
020844
020804
010804
010804
010804
ENDCHAR
STARTCHAR minus
ENCODING 8722
SWIDTH 358 0
DWIDTH 6 0
BBX 5 1 1 5
BITMAP
F8
ENDCHAR
STARTCHAR commaaccent
ENCODING 63171
SWIDTH 450 0
DWIDTH 8 0
BBX 1 4 3 -6
BITMAP
80
80
80
80
ENDCHAR
STARTCHAR fi
ENCODING 64257
SWIDTH 409 0
DWIDTH 7 0
BBX 6 16 0 0
BITMAP
10
28
28
24
20
20
24
2C
34
E4
24
24
24
24
24
24
ENDCHAR
STARTCHAR fl
ENCODING 64258
SWIDTH 416 0
DWIDTH 8 0
BBX 7 16 0 0
BITMAP
10
2C
24
24
22
22
22
2E
32
E2
22
22
22
22
22
22
ENDCHAR
STARTCHAR .notdef
ENCODING -1
SWIDTH 450 0
DWIDTH 8 0
BBX 1 1 0 0
BITMAP
00
ENDCHAR
STARTCHAR .null
ENCODING -1
SWIDTH 0 0
DWIDTH 0 0
BBX 1 1 0 0
BITMAP
00
ENDCHAR
STARTCHAR nonmarkingreturn
ENCODING -1
SWIDTH 450 0
DWIDTH 8 0
BBX 1 1 0 0
BITMAP
00
ENDCHAR
ENDFONT
